<svg id="trash-solid_1_" data-name="trash-solid (1)" xmlns="http://www.w3.org/2000/svg" width="32" height="32" viewBox="0 0 32 32">
  <path id="Path_37916" data-name="Path 37916" d="M6,9V28.556a2.6,2.6,0,0,0,2.542,2.667h16.2a2.6,2.6,0,0,0,2.587-2.667V9Zm8,17.778H12.222V13.444H14Zm7.111,0H19.333V13.444h1.778Z" transform="translate(-0.667 -1)" fill="#c2c2c2"/>
  <path id="Path_37917" data-name="Path 37917" d="M27.76,4.667H20.889V3.778A1.778,1.778,0,0,0,19.111,2H13.6A1.778,1.778,0,0,0,12,3.778v.889H4.889a.889.889,0,1,0,0,1.778H27.76a.889.889,0,1,0,0-1.778Z" transform="translate(-0.444 -0.222)" fill="#c2c2c2"/>
  <rect id="Rectangle_3552" data-name="Rectangle 3552" width="32" height="32" fill="rgba(0,0,0,0)"/>
</svg>
