<svg xmlns="http://www.w3.org/2000/svg" width="26.67" height="26.669" viewBox="0 0 26.67 26.669">
  <g id="edit" transform="translate(-2419.556 -344.775)">
    <path id="Path_35505" data-name="Path 35505" d="M25.333,27.333H5.778V7.778H17.529L19.307,6H5.778A1.778,1.778,0,0,0,4,7.778V27.333a1.778,1.778,0,0,0,1.778,1.778H25.333a1.778,1.778,0,0,0,1.778-1.778V14l-1.778,1.778Z" transform="translate(2415.556 342.333)" fill="#777"/>
    <path id="Path_35506" data-name="Path 35506" d="M31.252,5.413l-3-3a1.431,1.431,0,0,0-2.027,0L14.043,14.675l-.987,4.276a1.431,1.431,0,0,0,1.4,1.716,1.5,1.5,0,0,0,.329,0l4.311-.951L31.252,7.44a1.431,1.431,0,0,0,0-2.027ZM18.168,18.071l-3.253.72.756-3.227,9.173-9.236L27.35,8.835ZM28.354,7.831,25.848,5.324l1.378-1.4L29.75,6.444Z" transform="translate(2414.552 342.778)" fill="#777"/>
  </g>
</svg>
